<svg xmlns="http://www.w3.org/2000/svg" width="24" height="34" viewBox="0 0 24 34">
  <g fill="none" fill-rule="evenodd">
    <g opacity=".8" transform="translate(1 11)">
      <path fill="#FFA101" d="M15.0327297,0.868224554 L15.0327297,10.897785 L5.32861179,1.06883842 C6.88931513,0.383963168 8.61223065,0.00368990099 10.4229301,0.00368990099 C12.047991,0.00368990099 13.6026864,0.309642376 15.0327297,0.868224554"/>
      <path fill="#F7ED00" d="M20.3733917,6.94664594 L13.9773132,13.3939964 L14.0077847,0.787865743 C16.8491128,1.91587762 19.1421697,4.14175485 20.3733917,6.94664594"/>
      <path fill="#B5DD01" d="M21.9734098,10.2660887 C21.9734098,11.9040214 21.6698617,13.4710313 21.1156692,14.9124016 L11.1649265,14.9124016 L20.9166318,5.13141941 C21.596125,6.70452832 21.9734098,8.44104713 21.9734098,10.2660887"/>
      <path fill="#60C660" d="M21.0359462,13.9496816 C19.9167988,16.8135152 17.708457,19.124735 14.925565,20.3663192 L8.52892456,13.9189687 L21.0359462,13.9496816 Z"/>
      <path fill="#668FD1" d="M16.6567014,20.9132958 C15.0959548,21.5982147 13.3730825,21.9784444 11.5623831,21.9784444 C9.9373222,21.9784444 8.38262672,21.6724919 6.9525835,21.1139097 L6.9525835,11.0843493 L16.6567014,20.9132958 Z"/>
      <path fill="#9869BC" d="M7.84854971,8.42747248 L7.81807819,21.0335596 C4.9767501,19.9055913 2.68369312,17.6797141 1.45251434,14.874823 L7.84854971,8.42747248 Z"/>
      <path fill="#D35F99" d="M10.7791399,6.90903683 L1.07437367,16.690019 C0.394837328,15.1169101 0.0175524558,13.3803913 0.0175524558,11.5553497 C0.0175524558,9.91741703 0.321143811,8.35040713 0.875336346,6.90903683 L10.7791399,6.90903683 Z"/>
      <path fill="#E54838" d="M13.4284715,7.87432277 L0.951878193,7.87432277 C2.07102554,5.01048911 4.27941061,2.69926931 7.06225933,1.45768515 L13.4284715,7.87432277 Z"/>
    </g>
    <path fill="#FFF" fill-rule="nonzero" d="M12,32 C17.5228475,32 22,27.5228475 22,22 C22,16.4771525 17.5228475,12 12,12 C6.4771525,12 2,16.4771525 2,22 C2,27.5228475 6.4771525,32 12,32 Z M12,34 C5.372583,34 0,28.627417 0,22 C0,15.372583 5.372583,10 12,10 C18.627417,10 24,15.372583 24,22 C24,28.627417 18.627417,34 12,34 Z"/>
    <rect width="2" height="22" fill="#FFF"/>
  </g>
</svg>
